<svg xmlns="http://www.w3.org/2000/svg"  viewBox="0 0 100 100" width="500px" height="500px"><path fill="#c7ede6" d="M87.215,56.71C88.35,54.555,89,52.105,89,49.5c0-6.621-4.159-12.257-10.001-14.478 C78.999,35.015,79,35.008,79,35c0-11.598-9.402-21-21-21c-9.784,0-17.981,6.701-20.313,15.757C36.211,29.272,34.638,29,33,29 c-7.692,0-14.023,5.793-14.89,13.252C12.906,43.353,9,47.969,9,53.5C9,59.851,14.149,65,20.5,65c0.177,0,0.352-0.012,0.526-0.022 C21.022,65.153,21,65.324,21,65.5C21,76.822,30.178,86,41.5,86c6.437,0,12.175-2.972,15.934-7.614C59.612,80.611,62.64,82,66,82 c4.65,0,8.674-2.65,10.666-6.518C77.718,75.817,78.837,76,80,76c6.075,0,11-4.925,11-11C91,61.689,89.53,58.727,87.215,56.71z"/><path fill="#fff" d="M16.405 50H6.5C6.224 50 6 49.776 6 49.5S6.224 49 6.5 49h9.905c.276 0 .5.224.5.5S16.682 50 16.405 50zM19.5 50h-1c-.276 0-.5-.224-.5-.5s.224-.5.5-.5h1c.276 0 .5.224.5.5S19.777 50 19.5 50zM24.491 52H15.5c-.276 0-.5-.224-.5-.5s.224-.5.5-.5h8.991c.276 0 .5.224.5.5S24.767 52 24.491 52zM13.5 52h-1c-.276 0-.5-.224-.5-.5s.224-.5.5-.5h1c.276 0 .5.224.5.5S13.777 52 13.5 52zM10.5 52h-2C8.224 52 8 51.776 8 51.5S8.224 51 8.5 51h2c.276 0 .5.224.5.5S10.777 52 10.5 52zM16.5 54h-2c-.276 0-.5-.224-.5-.5s.224-.5.5-.5h2c.276 0 .5.224.5.5S16.776 54 16.5 54zM19.5 45c-.177 0-.823 0-1 0-.276 0-.5.224-.5.5 0 .276.224.5.5.5.177 0 .823 0 1 0 .276 0 .5-.224.5-.5C20 45.224 19.776 45 19.5 45zM19.5 47c-.177 0-4.823 0-5 0-.276 0-.5.224-.5.5 0 .276.224.5.5.5.177 0 4.823 0 5 0 .276 0 .5-.224.5-.5C20 47.224 19.776 47 19.5 47zM24.5 49c-.177 0-2.823 0-3 0-.276 0-.5.224-.5.5 0 .276.224.5.5.5.177 0 2.823 0 3 0 .276 0 .5-.224.5-.5C25 49.224 24.776 49 24.5 49zM85 66H75c-.276 0-.5-.224-.5-.5S74.724 65 75 65h10c.276 0 .5.224.5.5S85.276 66 85 66zM89 66h-2c-.276 0-.5-.224-.5-.5S86.724 65 87 65h2c.276 0 .5.224.5.5S89.276 66 89 66zM94 68H84c-.276 0-.5-.224-.5-.5S83.724 67 84 67h10c.276 0 .5.224.5.5S94.277 68 94 68zM82 68h-1c-.276 0-.5-.224-.5-.5S80.724 67 81 67h1c.276 0 .5.224.5.5S82.276 68 82 68zM78.875 68H77c-.276 0-.5-.224-.5-.5S76.724 67 77 67h1.875c.276 0 .5.224.5.5S79.151 68 78.875 68zM88 64h-5c-.276 0-.5-.224-.5-.5S82.724 63 83 63h5c.276 0 .5.224.5.5S88.277 64 88 64zM85 70h-2c-.276 0-.5-.224-.5-.5S82.724 69 83 69h2c.276 0 .5.224.5.5S85.276 70 85 70z"/><path fill="#fdfcef" d="M45,40h5.75c2.485,0.75,4.5-1.265,4.5-3.75c0-2.333-1.782-4.229-4.055-4.455 c0.022-0.181,0.055-0.358,0.055-0.545c0-2.485-2.015-4.5-4.5-4.5c-1.438,0-2.703,0.686-3.527,1.736 c-0.14-2.636-2.302-4.736-4.973-4.736c-2.761,0-5,2.239-5,5c0,0.446,0.077,0.87,0.187,1.282c-0.642-0.777-1.6-1.282-2.687-1.282 c-1.781,0-3.234,1.335-3.455,3.055c-0.181-0.022-0.358-0.055-0.545-0.055c-2.485,0-4.5,2.015-4.5,4.5s2.015,4.5,4.5,3.75h9.5H42v1 h3V40z"/><path fill="#472b29" d="M38.5,23c-3.033,0-5.5,2.467-5.5,5.5c0,0.016,0,0.031,0,0.047C32.398,28.192,31.71,28,31,28 c-1.831,0-3.411,1.261-3.858,3.005C27.095,31.002,27.048,31,27,31c-3.099,0-5.549,2.834-4.893,6.047 C22.587,39.398,24.796,41,27.196,41l14.679,0c0.276,0,0.5-0.224,0.5-0.5s-0.224-0.5-0.5-0.5l-14.718,0 c-1.92,0-3.687-1.282-4.071-3.163C22.561,34.267,24.521,32,27,32c0.117,0,0.23,0.017,0.343,0.032l0.141,0.019 c0.021,0.003,0.041,0.004,0.062,0.004c0.246,0,0.462-0.185,0.495-0.437C28.232,30.125,29.504,29,31,29 c0.885,0,1.723,0.401,2.301,1.1c0.098,0.118,0.241,0.182,0.386,0.182c0.078,0,0.156-0.018,0.228-0.056 c0.209-0.107,0.314-0.346,0.254-0.573c-0.16-0.6-0.202-1.069-0.147-1.549c0.24-2.127,1.959-3.909,4.092-4.088 c2.551-0.215,4.725,1.728,4.859,4.246c0.011,0.208,0.15,0.387,0.349,0.45c0.05,0.016,0.101,0.024,0.152,0.024 c0.15,0,0.296-0.069,0.392-0.192C44.638,27.563,45.779,27,47,27c2.206,0,4,1.794,4,4c0,0.117-0.017,0.23-0.032,0.343l-0.019,0.141 c-0.016,0.134,0.022,0.268,0.106,0.373c0.084,0.105,0.207,0.172,0.34,0.185c2.352,0.234,4.042,2.429,3.504,4.865 C54.491,38.76,52.725,40,50.827,40l-5.952,0c-0.276,0-0.5,0.224-0.5,0.5s0.224,0.5,0.5,0.5l5.938,0 c2.467,0,4.708-1.704,5.115-4.138c0.462-2.763-1.344-5.22-3.931-5.74C51.999,31.082,52,31.041,52,31c0-2.757-2.243-5-5-5 c-1.176,0-2.293,0.416-3.183,1.164C43.219,24.76,41.055,23,38.5,23L38.5,23z"/><path fill="#472b29" d="M36.75 30.25c-1.403 0-2.609.999-2.913 2.341-.367-.222-.786-.341-1.212-.341-1.202 0-2.198.897-2.353 2.068-.203-.045-.396-.068-.585-.068-1.529 0-2.811 1.2-2.918 2.732-.009.138.094.257.232.267.006 0 .012 0 .018 0 .13 0 .24-.101.249-.232.089-1.271 1.151-2.268 2.419-2.268.229 0 .47.042.738.127.022.007.045.01.067.01.055 0 .11-.02.156-.054.064-.047.102-.129.102-.209 0-1.034.841-1.875 1.875-1.875.447 0 .885.168 1.231.473.047.041.106.063.165.063.032 0 .063-.006.093-.019.088-.035.148-.117.155-.212.102-1.292 1.191-2.305 2.479-2.305.208 0 .425.034.682.107.023.007.047.01.07.01.109 0 .207-.073.239-.182.038-.133-.039-.271-.172-.309C37.267 30.29 37.006 30.25 36.75 30.25L36.75 30.25zM50.633 31.75c-1.326 0-2.508.897-2.874 2.182-.038.133.039.271.172.309.023.007.046.01.068.01.109 0 .209-.072.24-.182.305-1.071 1.289-1.818 2.393-1.818.117 0 .23.014.342.029.012.002.023.003.035.003.121 0 .229-.092.246-.217.019-.137-.077-.263-.214-.281C50.908 31.766 50.772 31.75 50.633 31.75L50.633 31.75z"/><path fill="#d38b5d" d="M33.156,74.3c-0.252,0-0.456-0.204-0.456-0.456v-9.688c0-0.252,0.204-0.456,0.456-0.456h4.688 c0.252,0,0.456,0.204,0.456,0.456v9.688c0,0.252-0.204,0.456-0.456,0.456H33.156z"/><path fill="#472b29" d="M37.6,64.4v9.2h-4.2v-9.2H37.6 M37.844,63h-4.688C32.518,63,32,63.518,32,64.156v9.688 C32,74.482,32.518,75,33.156,75h4.688C38.482,75,39,74.482,39,73.844v-9.688C39,63.518,38.482,63,37.844,63L37.844,63z"/><path fill="#d38b5d" d="M63.031,74.3c-0.183,0-0.331-0.148-0.331-0.331v-9.938c0-0.183,0.148-0.331,0.331-0.331h4.938 c0.183,0,0.331,0.148,0.331,0.331v9.938c0,0.183-0.148,0.331-0.331,0.331H63.031z"/><path fill="#472b29" d="M67.6,64.4v9.2h-4.2v-9.2H67.6 M67.969,63h-4.938C62.462,63,62,63.462,62,64.031v9.938 C62,74.538,62.462,75,63.031,75h4.938C68.538,75,69,74.538,69,73.969v-9.938C69,63.462,68.538,63,67.969,63L67.969,63z"/><g><path fill="#f9e65c" d="M34.708,58.239c-0.041,0-0.08-0.01-0.117-0.029l-5.367-2.905c-0.079-0.043-0.108-0.111-0.12-0.147 c-0.011-0.037-0.022-0.111,0.021-0.19l11.948-22.076c0.053-0.096,0.147-0.13,0.22-0.13c0.041,0,0.08,0.01,0.117,0.029l5.367,2.905 c0.121,0.065,0.165,0.217,0.1,0.338L34.928,58.109C34.875,58.205,34.78,58.239,34.708,58.239z"/><path fill="#472b29" d="M41.473,33.621l4.573,2.475L34.527,57.379l-4.573-2.475L41.473,33.621 M41.292,32.061 c-0.337,0-0.663,0.18-0.835,0.497L28.508,54.634c-0.249,0.46-0.078,1.037,0.383,1.286l5.367,2.905 c0.144,0.078,0.298,0.115,0.451,0.115c0.337,0,0.663-0.18,0.835-0.497l11.949-22.077c0.249-0.46,0.078-1.037-0.383-1.286 l-5.367-2.905C41.599,32.098,41.444,32.061,41.292,32.061L41.292,32.061z"/></g><g><path fill="#78cdd4" d="M47.983,58.3c-0.156,0-0.283-0.127-0.283-0.283V30.983c0-0.156,0.127-0.283,0.283-0.283h6.033 c0.156,0,0.283,0.127,0.283,0.283v27.033c0,0.156-0.127,0.283-0.283,0.283H47.983z"/><path fill="#472b29" d="M53.6,31.4v26.2h-5.2V31.4H53.6 M54.017,30h-6.034C47.44,30,47,30.44,47,30.983v27.033 C47,58.56,47.44,59,47.983,59h6.034C54.56,59,55,58.56,55,58.017V30.983C55,30.44,54.56,30,54.017,30L54.017,30z"/></g><g><path fill="#afabd4" d="M62.807,58.3c-0.059,0-0.106-0.048-0.106-0.106V33.807c0-0.059,0.048-0.106,0.106-0.106h4.387 c0.059,0,0.106,0.048,0.106,0.106v24.387c0,0.059-0.048,0.106-0.106,0.106H62.807z"/><path fill="#472b29" d="M66.6,34.4v23.2h-3.2V34.4H66.6 M67.194,33h-4.388C62.361,33,62,33.361,62,33.806v24.388 C62,58.639,62.361,59,62.806,59h4.388C67.639,59,68,58.639,68,58.194V33.806C68,33.361,67.639,33,67.194,33L67.194,33z"/></g><g><path fill="#ea5167" d="M55.129,58.3c-0.236,0-0.429-0.192-0.429-0.429V26.129c0-0.236,0.192-0.429,0.429-0.429h6.742 c0.236,0,0.429,0.192,0.429,0.429v31.742c0,0.236-0.192,0.429-0.429,0.429H55.129z"/><path fill="#472b29" d="M61.6,26.4v31.2h-6.2V26.4H61.6 M61.871,25h-6.742C54.506,25,54,25.505,54,26.129v31.741 C54,58.495,54.506,59,55.129,59h6.742C62.494,59,63,58.495,63,57.871V26.129C63,25.505,62.494,25,61.871,25L61.871,25z"/></g><g><path fill="#d38b5d" d="M29.069,64.3c-0.204,0-0.369-0.165-0.369-0.369v-4.861c0-0.204,0.165-0.369,0.369-0.369h41.861 c0.204,0,0.369,0.165,0.369,0.369v4.861c0,0.204-0.165,0.369-0.369,0.369H29.069z"/><path fill="#472b29" d="M70.6,59.4v4.2H29.4v-4.2H70.6 M70.93,58H29.07C28.479,58,28,58.479,28,59.07v4.86 c0,0.591,0.479,1.07,1.07,1.07H70.93c0.591,0,1.07-0.479,1.07-1.07v-4.86C72,58.479,71.521,58,70.93,58L70.93,58z"/></g><g><path fill="#472b29" d="M56.5,30h-2c-0.276,0-0.5-0.224-0.5-0.5s0.224-0.5,0.5-0.5h2c0.276,0,0.5,0.224,0.5,0.5 S56.776,30,56.5,30z"/></g><g><path fill="#472b29" d="M62.5,30h-4c-0.276,0-0.5-0.224-0.5-0.5s0.224-0.5,0.5-0.5h4c0.276,0,0.5,0.224,0.5,0.5 S62.776,30,62.5,30z"/></g><g><path fill="#472b29" d="M32.5,62h-4c-0.276,0-0.5-0.224-0.5-0.5s0.224-0.5,0.5-0.5h4c0.276,0,0.5,0.224,0.5,0.5 S32.776,62,32.5,62z"/></g><g><path fill="#472b29" d="M37.5,62h-2c-0.276,0-0.5-0.224-0.5-0.5s0.224-0.5,0.5-0.5h2c0.276,0,0.5,0.224,0.5,0.5 S37.776,62,37.5,62z"/></g><g><path fill="#472b29" d="M67.5,62h-27c-0.276,0-0.5-0.224-0.5-0.5s0.224-0.5,0.5-0.5h27c0.276,0,0.5,0.224,0.5,0.5 S67.776,62,67.5,62z"/></g><g><path fill="#472b29" d="M56.5,55h-2c-0.276,0-0.5-0.224-0.5-0.5s0.224-0.5,0.5-0.5h2c0.276,0,0.5,0.224,0.5,0.5 S56.776,55,56.5,55z"/></g><g><path fill="#472b29" d="M62.5,55h-4c-0.276,0-0.5-0.224-0.5-0.5s0.224-0.5,0.5-0.5h4c0.276,0,0.5,0.224,0.5,0.5 S62.776,55,62.5,55z"/></g><g><path fill="#472b29" d="M54.5,34h-4c-0.276,0-0.5-0.224-0.5-0.5s0.224-0.5,0.5-0.5h4c0.276,0,0.5,0.224,0.5,0.5 S54.776,34,54.5,34z"/></g><g><path fill="#472b29" d="M43.2,37.443c-0.081,0-0.162-0.02-0.238-0.061l-3.519-1.904c-0.242-0.131-0.333-0.435-0.201-0.678 c0.131-0.244,0.436-0.332,0.678-0.201l3.519,1.904c0.242,0.131,0.333,0.435,0.201,0.678C43.55,37.349,43.377,37.443,43.2,37.443z"/></g><g><path fill="#472b29" d="M33.68,55.032c-0.081,0-0.162-0.02-0.238-0.061l-3.518-1.903c-0.242-0.131-0.333-0.435-0.201-0.678 c0.131-0.244,0.435-0.331,0.678-0.201l3.518,1.903c0.242,0.131,0.333,0.435,0.201,0.678C34.029,54.938,33.856,55.032,33.68,55.032z"/></g><g><path fill="#472b29" d="M67.5,37h-3c-0.276,0-0.5-0.224-0.5-0.5s0.224-0.5,0.5-0.5h3c0.276,0,0.5,0.224,0.5,0.5 S67.776,37,67.5,37z"/></g><g><path fill="#472b29" d="M67.5,56h-3c-0.276,0-0.5-0.224-0.5-0.5s0.224-0.5,0.5-0.5h3c0.276,0,0.5,0.224,0.5,0.5 S67.776,56,67.5,56z"/></g><g><path fill="#472b29" d="M54.5,56h-4c-0.276,0-0.5-0.224-0.5-0.5s0.224-0.5,0.5-0.5h4c0.276,0,0.5,0.224,0.5,0.5 S54.776,56,54.5,56z"/></g><g><path fill="#fdfcef" d="M68.25,51.5c0,0-1.567,0-3.5,0s-3.5-1.567-3.5-3.5c0-1.781,1.335-3.234,3.055-3.455 C64.277,44.366,64.25,44.187,64.25,44c0-1.933,1.567-3.5,3.5-3.5c1.032,0,1.95,0.455,2.59,1.165 c0.384-1.808,1.987-3.165,3.91-3.165c2.209,0,4,1.791,4,4c0,0.191-0.03,0.374-0.056,0.558c0.428-0.344,0.965-0.558,1.556-0.558 c1.228,0,2.245,0.887,2.455,2.055c0.179-0.028,0.358-0.055,0.545-0.055c1.933,0,3.5,1.567,3.5,3.5s-1.567,3.5-3.5,3.5 s-7.5,0-7.5,0V52h-7V51.5z"/><path fill="#472b29" d="M66.5 47c.138 0 .25-.112.25-.25 0-1.223-.995-2.218-2.218-2.218-.034.009-.737-.001-1.244.136-.133.036-.212.173-.176.306.036.134.173.213.306.176.444-.12 1.1-.12 1.113-.118.948 0 1.719.771 1.719 1.718C66.25 46.888 66.362 47 66.5 47zM73.25 51A.5.5 0 1 0 73.25 52 .5.5 0 1 0 73.25 51z"/><path fill="#472b29" d="M64.75,52h3.5c0.276,0,0.5-0.224,0.5-0.5s-0.224-0.5-0.5-0.5h-3.5c-1.654,0-3-1.346-3-3 c0-1.496,1.125-2.768,2.618-2.959c0.134-0.018,0.255-0.088,0.336-0.196s0.115-0.244,0.094-0.377 C64.775,44.314,64.75,44.16,64.75,44c0-1.654,1.346-3,3-3c0.85,0,1.638,0.355,2.219,1c0.125,0.139,0.321,0.198,0.5,0.148 c0.182-0.049,0.321-0.195,0.36-0.379C71.17,40.165,72.609,39,74.25,39c1.93,0,3.5,1.57,3.5,3.5c0,0.143-0.021,0.28-0.041,0.418 c-0.029,0.203,0.063,0.438,0.242,0.54c0.179,0.102,0.396,0.118,0.556-0.01C78.872,43.155,79.301,43,79.75,43 c0.966,0,1.792,0.691,1.963,1.644c0.048,0.267,0.296,0.446,0.569,0.405C82.436,45.025,82.59,45,82.75,45c1.654,0,3,1.346,3,3 s-1.346,3-3,3h-7.5c-0.276,0-0.5,0.224-0.5,0.5s0.224,0.5,0.5,0.5h7.5c2.206,0,4-1.794,4-4s-1.794-4-4-4 c-0.059,0-0.116,0.002-0.174,0.006C82.162,42.82,81.039,42,79.75,42c-0.349,0-0.689,0.061-1.011,0.18 C78.574,39.847,76.624,38,74.25,38c-1.831,0-3.466,1.127-4.153,2.774C69.417,40.276,68.595,40,67.75,40c-2.206,0-4,1.794-4,4 c0,0.048,0.001,0.095,0.004,0.142C62.011,44.59,60.75,46.169,60.75,48C60.75,50.206,62.544,52,64.75,52z"/><path fill="#472b29" d="M70.25,51c0.159,0,0.841,0,1,0c0.276,0,0.5,0.224,0.5,0.5c0,0.276-0.224,0.5-0.5,0.5 c-0.159,0-0.841,0-1,0c-0.276,0-0.5-0.224-0.5-0.5C69.75,51.224,69.974,51,70.25,51z"/></g></svg>